<?xml version="1.0" standalone="no"?>
<!DOCTYPE svg PUBLIC "-//W3C//DTD SVG 20010904//EN"
 "http://www.w3.org/TR/2001/REC-SVG-20010904/DTD/svg10.dtd">
<svg version="1.0" xmlns="http://www.w3.org/2000/svg"
 width="736.000000pt" height="1031.000000pt" viewBox="0 0 736.000000 1031.000000"
 preserveAspectRatio="xMidYMid meet">
<metadata>
Created by potrace 1.15, written by Peter Selinger 2001-2017
</metadata>
<g transform="translate(0.000000,1031.000000) scale(0.100000,-0.100000)"
fill="#000000" stroke="none">
<path d="M4736 9994 c-3 -8 -1 -25 5 -36 11 -20 10 -51 -7 -186 -10 -81 -101
-251 -205 -379 -102 -126 -373 -395 -529 -527 -80 -66 -147 -123 -150 -126 -6
-7 -145 -109 -176 -130 -12 -8 -66 -46 -120 -85 -111 -79 -307 -204 -313 -199
-1 1 8 18 22 36 83 113 159 309 178 460 14 115 5 387 -17 478 -37 162 -126
363 -219 495 -44 62 -64 77 -125 93 -19 6 -43 13 -52 17 -14 5 -18 2 -18 -14
0 -12 6 -21 14 -21 8 0 39 -24 68 -53 124 -121 174 -327 132 -548 -33 -177
-64 -276 -137 -434 -132 -283 -173 -353 -437 -730 -38 -55 -85 -122 -104 -149
-37 -54 -362 -400 -608 -648 -101 -103 -175 -187 -210 -241 -169 -257 -240
-473 -241 -727 -1 -109 19 -161 74 -200 59 -43 161 -36 207 13 30 32 152 273
152 301 0 13 11 52 25 87 l25 64 -7 -53 c-10 -86 37 -139 69 -77 17 33 151
195 156 190 3 -2 -13 -30 -34 -62 -40 -60 -104 -197 -104 -223 0 -8 -9 -38
-20 -67 -42 -111 -53 -176 -40 -238 10 -48 20 -66 63 -110 75 -76 115 -80 317
-30 158 38 269 57 333 55 34 -2 76 -3 92 -3 128 -3 309 47 390 108 17 12 46
30 65 40 93 47 167 135 195 233 13 45 15 81 10 201 -5 97 -3 168 5 211 11 61
16 69 78 133 68 70 108 99 242 179 277 165 413 214 760 274 383 66 549 92 645
99 50 3 162 17 250 30 88 13 183 27 210 31 28 3 86 15 130 24 191 43 352 81
380 90 17 5 62 19 100 31 90 28 370 141 459 186 162 82 406 264 406 304 0 11
8 36 19 57 27 53 36 102 19 102 -7 0 -20 -15 -29 -33 -9 -19 -44 -52 -85 -80
-73 -51 -400 -217 -428 -217 -19 0 -155 -35 -211 -55 -99 -35 -342 -55 -840
-70 -714 -21 -909 -39 -1105 -101 -130 -40 -192 -72 -350 -179 -195 -132 -249
-174 -356 -280 -50 -49 -138 -133 -195 -185 -101 -93 -230 -224 -318 -325 -65
-75 -221 -218 -228 -211 -4 3 52 66 123 139 71 72 196 205 277 294 373 410
616 614 897 754 127 63 308 139 332 139 34 0 334 85 393 112 11 5 61 19 110
32 50 13 144 40 210 61 66 21 152 46 190 57 39 11 78 24 89 30 10 5 53 21 95
34 42 13 85 29 96 34 11 4 52 20 90 35 155 57 440 209 533 283 149 120 240
204 260 241 29 51 78 200 90 276 13 77 27 250 23 295 -3 45 -33 106 -72 149
-39 42 -52 28 -31 -36 25 -76 -3 -213 -71 -353 -39 -79 -180 -226 -277 -289
-92 -60 -368 -193 -475 -229 -49 -17 -135 -47 -190 -67 -328 -121 -368 -133
-930 -274 -306 -77 -364 -93 -395 -111 -14 -8 -99 -40 -190 -71 -171 -59 -357
-137 -495 -207 -44 -22 -105 -50 -135 -62 -30 -12 -97 -44 -149 -71 -52 -27
-95 -48 -97 -46 -2 2 35 25 81 53 134 78 289 179 378 246 221 167 517 444 617
578 87 115 242 391 292 516 43 109 132 431 168 607 21 105 -7 196 -80 254 -24
20 -29 21 -34 7z m-1411 -1057 c-28 -139 -77 -232 -164 -313 -48 -45 -48 -64
0 -64 16 0 29 -4 29 -9 0 -14 -110 -101 -136 -107 -22 -6 -35 -42 -16 -45 34
-6 61 -5 82 2 16 6 -5 -19 -60 -73 -88 -86 -230 -198 -250 -198 -25 0 -3 -34
28 -42 17 -5 32 -12 32 -16 -1 -14 -350 -281 -350 -267 0 7 144 190 258 329
115 141 298 419 371 565 57 113 105 241 152 401 l34 115 3 -100 c2 -63 -3
-129 -13 -178z m1105 11 c-12 -18 -42 -49 -66 -68 -52 -42 -179 -120 -203
-125 -9 -2 -43 -13 -76 -25 -33 -12 -80 -22 -105 -23 -43 -2 -45 -3 -48 -34
-3 -26 2 -34 25 -46 15 -8 41 -17 56 -21 30 -7 143 17 190 41 15 7 27 9 27 4
0 -24 -71 -76 -166 -122 -107 -52 -175 -67 -364 -84 -41 -4 -87 -8 -102 -10
-16 -1 -28 -1 -28 0 0 1 33 26 73 55 134 99 231 174 405 312 95 77 177 136
182 133 5 -3 24 1 42 9 18 8 62 20 97 25 35 6 66 13 69 16 3 3 7 3 10 0 3 -2
-5 -19 -18 -37z m1670 -323 c-9 -10 -9 -15 -1 -16 14 -2 22 -4 41 -12 8 -3 29
-8 45 -10 l30 -3 -30 -13 c-16 -7 -68 -30 -115 -51 -47 -21 -112 -43 -145 -49
-78 -14 -193 -15 -225 -3 -28 11 -32 9 75 46 161 56 262 94 290 109 38 20 51
21 35 2z m-464 -191 c1 -26 22 -64 34 -64 21 0 8 -17 -25 -33 -69 -33 -262
-47 -460 -34 -22 1 -30 -3 -33 -16 -6 -28 34 -64 86 -77 l47 -12 -30 -13 c-63
-28 -189 -38 -318 -26 -157 15 -187 20 -187 31 0 17 37 29 312 100 151 38 338
92 414 119 76 26 144 47 149 46 6 -1 10 -10 11 -21z m-2033 -82 c29 -18 48
-20 193 -17 102 1 169 7 183 15 13 6 25 9 28 6 14 -13 -260 -136 -417 -187
-92 -30 -99 -31 -225 -25 -71 3 -141 9 -154 13 -23 6 -24 4 -18 -25 11 -54 35
-79 105 -108 57 -23 82 -28 164 -28 95 -1 97 -1 75 -18 -23 -19 -166 -68 -196
-68 -10 0 -53 -9 -96 -20 -84 -21 -150 -26 -160 -11 -3 6 -25 13 -49 16 -34 5
-46 12 -50 28 -8 31 -24 10 -27 -34 -5 -72 51 -114 179 -132 l84 -12 -107 -53
c-183 -91 -250 -114 -335 -116 -64 -1 -80 3 -108 22 -34 25 -31 26 -47 -23 -6
-22 15 -74 35 -85 22 -12 140 -15 204 -5 68 11 57 -2 -86 -96 -77 -50 -136
-81 -166 -88 -86 -18 -212 -35 -218 -29 -11 12 195 307 250 357 14 14 26 31
26 38 0 39 310 379 336 369 7 -3 24 8 39 24 15 16 64 54 109 86 44 32 122 88
171 124 50 37 117 86 150 108 l60 40 18 -23 c10 -13 32 -33 50 -43z m1102
-212 c1 -49 9 -58 77 -81 40 -14 47 -19 28 -20 -45 -4 -55 -6 -80 -16 -14 -6
-82 -20 -151 -32 -138 -23 -449 -31 -449 -11 0 6 1 10 3 10 1 0 54 19 117 41
138 50 431 147 445 148 6 1 10 -17 10 -39z m-621 -195 c-7 -30 21 -58 76 -76
51 -17 53 -20 33 -34 -60 -41 -231 -75 -380 -75 -80 0 -85 1 -80 20 3 11 1 23
-4 26 -20 12 -4 24 89 63 101 43 251 100 265 101 4 0 5 -11 1 -25z m-409 -161
c-22 -21 -26 -31 -21 -56 10 -50 22 -58 95 -59 36 0 86 -4 111 -8 l45 -7 -165
-81 c-91 -45 -194 -92 -230 -104 -85 -28 -236 -37 -265 -16 -16 13 -18 18 -7
28 6 7 12 19 12 26 0 22 -25 15 -54 -16 -22 -23 -27 -36 -24 -71 3 -41 4 -42
63 -67 66 -29 166 -37 265 -23 30 4 57 6 58 5 10 -9 -211 -126 -318 -169 -152
-60 -222 -69 -295 -37 -60 26 -67 26 -63 -1 3 -25 54 -54 147 -83 61 -20 175
-16 269 9 28 8 52 13 52 11 0 -13 -148 -99 -259 -152 -226 -107 -332 -135
-431 -114 -29 6 -55 9 -57 7 -9 -9 8 -44 24 -50 17 -7 117 -24 193 -33 44 -5
198 26 244 49 14 8 17 7 14 -4 -7 -21 -134 -105 -238 -158 -169 -85 -304 -109
-445 -80 -31 6 -59 9 -63 6 -12 -13 37 -62 89 -90 52 -27 58 -28 160 -23 97 5
113 9 178 41 102 52 97 43 -35 -69 -43 -37 -103 -78 -133 -91 -75 -34 -176
-47 -257 -34 -80 13 -174 47 -181 66 -15 39 94 288 192 439 57 88 300 347 372
396 24 17 63 50 86 73 100 99 427 333 611 436 62 35 265 129 280 130 5 0 -3
-12 -19 -26z m2411 -13 c-3 -5 -16 -11 -28 -14 -13 -3 -79 -21 -148 -41 -194
-57 -289 -70 -500 -70 -163 0 -193 3 -250 22 -101 34 -129 28 -116 -23 7 -29
34 -45 83 -51 20 -3 43 -8 51 -13 26 -14 -24 -33 -102 -39 -135 -10 -576 50
-576 78 0 23 396 77 625 85 259 9 335 14 510 35 94 11 233 24 310 28 77 5 141
9 143 10 2 1 1 -2 -2 -7z m-3577 -103 c-59 -84 -173 -217 -221 -258 -132 -113
-252 -196 -325 -225 -48 -19 -56 -41 -18 -51 30 -7 110 11 143 32 39 25 37 9
-6 -63 -85 -142 -221 -274 -347 -339 -41 -20 -75 -43 -75 -51 0 -21 40 -31
109 -25 l63 5 -18 -29 c-11 -16 -51 -77 -91 -137 -39 -59 -75 -117 -78 -128
-9 -28 10 -47 33 -33 9 6 33 19 52 30 19 10 47 30 63 43 37 33 36 12 -3 -66
-37 -74 -99 -146 -140 -163 -27 -11 -34 -11 -47 3 -30 29 -44 216 -22 274 6
15 11 45 11 67 -1 53 58 229 110 328 47 91 123 201 200 289 88 101 468 453
509 471 21 9 55 28 76 42 20 14 39 24 41 21 2 -2 -6 -19 -19 -37z m1921 -82
c0 -18 88 -96 108 -96 27 0 7 -9 -34 -16 -21 -3 -85 -17 -141 -30 -68 -16
-133 -24 -192 -24 -91 0 -105 -5 -112 -44 -3 -13 -36 -37 -98 -69 -51 -27 -90
-44 -86 -38 3 7 46 41 93 76 48 36 92 68 97 73 49 39 325 182 353 182 6 0 12
-6 12 -14z m-2052 -376 c14 -22 58 -26 127 -11 22 5 60 12 84 15 l44 6 -19
-21 c-39 -44 -220 -151 -261 -156 -12 -1 -31 -7 -42 -12 -11 -6 -31 -11 -45
-11 -29 0 -50 -31 -41 -60 9 -29 51 -35 108 -17 28 9 53 15 55 13 2 -3 -41
-39 -95 -82 -54 -43 -115 -93 -136 -111 -69 -62 -72 -37 -11 97 35 75 205 368
214 369 3 1 11 -8 18 -19z m919 -739 c-13 -111 -121 -271 -221 -328 -32 -19
-36 -16 -19 18 28 56 -13 177 -67 194 -11 3 -20 10 -20 15 0 6 61 50 136 99
l137 90 30 -21 c27 -19 29 -25 24 -67z m-303 -170 c29 -32 32 -94 7 -130 -13
-17 -26 -31 -31 -31 -11 0 -68 95 -76 128 -4 12 -1 29 6 37 18 21 73 19 94 -4z
m-811 -56 c21 -25 55 -54 76 -65 50 -25 161 -43 220 -35 l46 7 -55 -51 c-81
-74 -178 -121 -251 -121 -53 0 -63 3 -95 33 l-37 33 12 70 c20 122 32 174 40
174 4 0 24 -20 44 -45z"/>
<path d="M5846 7511 c-12 -19 2 -28 56 -35 149 -20 315 -169 379 -341 12 -33
41 -98 65 -145 23 -47 49 -101 57 -121 l15 -37 -36 5 c-52 7 -106 -30 -110
-76 -5 -51 22 -116 84 -198 64 -84 94 -106 268 -192 69 -34 152 -85 194 -119
75 -60 177 -184 188 -228 3 -13 10 -24 14 -24 4 0 13 -14 20 -31 10 -24 18
-29 39 -27 l26 3 0 165 c-1 274 -53 515 -155 725 -83 169 -169 296 -264 390
-74 73 -95 87 -246 162 -207 103 -283 125 -456 131 -90 3 -134 1 -138 -7z"/>
<path d="M5640 7480 c-64 -11 -222 -30 -305 -36 -68 -5 -280 -31 -320 -39 -96
-20 -194 -65 -245 -111 -25 -22 -74 -58 -110 -78 -104 -61 -322 -230 -403
-314 -223 -232 -252 -271 -332 -449 -31 -69 -74 -149 -94 -177 -21 -28 -55
-75 -75 -105 -60 -85 -156 -177 -215 -207 -45 -22 -74 -28 -173 -35 -65 -4
-122 -10 -126 -13 -4 -2 -36 -7 -72 -11 -110 -11 -135 -19 -138 -42 -3 -19 2
-21 60 -22 86 -1 223 -26 262 -49 82 -48 73 -145 -26 -264 -21 -26 -63 -64
-91 -84 -63 -46 -117 -95 -117 -107 0 -6 7 -15 16 -22 13 -9 24 -7 55 8 47 23
76 29 159 32 36 2 72 6 82 10 9 3 33 2 55 -4 63 -18 219 -13 302 9 41 11 84
20 96 20 33 0 193 82 293 149 109 73 172 142 241 264 75 130 88 191 94 428 7
272 42 540 68 524 6 -4 7 -60 2 -153 -12 -224 -8 -519 7 -537 27 -32 46 -18
63 48 29 109 44 189 57 292 49 408 73 525 134 660 61 134 238 259 426 300 83
18 180 34 250 41 145 14 249 46 250 77 0 9 -70 7 -130 -3z m-1060 -652 c0 -55
-2 -60 -14 -43 -31 43 -78 18 -112 -58 -10 -23 -42 -76 -71 -118 -29 -42 -53
-79 -53 -83 0 -3 -17 -34 -38 -68 -74 -121 -144 -259 -139 -273 3 -7 15 -19
27 -25 17 -9 22 -7 29 12 15 36 100 138 115 138 70 0 -18 -297 -139 -465 -54
-76 -150 -159 -225 -194 -63 -30 -139 -33 -205 -10 l-40 14 1 60 c2 59 2 60
55 105 159 133 278 272 324 375 12 28 42 95 66 150 24 55 60 127 80 160 20 33
47 80 61 105 23 39 256 280 272 280 3 0 6 -28 6 -62z"/>
<path d="M5850 7399 c-111 -8 -496 -104 -641 -160 -91 -35 -212 -112 -258
-165 -57 -64 -114 -196 -163 -374 -17 -63 -19 -90 -13 -165 15 -177 8 -221
-76 -490 -59 -187 -91 -249 -202 -387 -164 -203 -295 -285 -582 -360 -88 -23
-314 -32 -415 -17 -30 4 -108 13 -173 20 -106 11 -121 11 -153 -5 -53 -25
-119 -83 -142 -125 -25 -44 -48 -168 -63 -336 -14 -159 -55 -394 -84 -475 -51
-148 -140 -330 -221 -451 -144 -219 -290 -354 -490 -455 l-108 -54 -102 0
c-57 0 -105 3 -107 8 -3 4 32 7 76 7 78 0 87 3 178 48 168 83 319 213 486 417
147 179 260 464 303 765 6 44 15 96 20 115 5 19 11 73 14 120 3 47 15 132 26
189 18 94 18 106 4 133 -14 28 -18 29 -57 23 -114 -18 -271 -76 -387 -142 -65
-38 -199 -144 -245 -195 -22 -25 -67 -63 -100 -86 -33 -23 -86 -67 -119 -99
l-58 -58 39 53 c56 75 132 229 139 283 9 65 -9 112 -59 153 -66 53 -123 77
-221 93 -260 42 -526 -56 -766 -282 -115 -108 -186 -164 -248 -195 -98 -49
-92 -85 13 -74 110 12 168 33 392 144 189 94 236 113 310 127 86 16 88 16 156
-8 115 -40 156 -106 133 -217 -9 -45 -30 -86 -87 -173 -83 -126 -103 -172 -89
-199 12 -22 -2 -35 -50 -45 -19 -4 -50 -18 -70 -30 -19 -12 -51 -30 -70 -39
-40 -19 -35 -15 67 60 35 25 63 49 63 54 0 21 -35 17 -73 -8 -61 -42 -146 -62
-249 -59 -47 1 -90 5 -93 9 -11 10 19 69 49 97 14 14 26 31 26 38 0 20 -31 9
-106 -37 -124 -75 -248 -93 -328 -46 -23 13 -54 26 -69 30 -34 8 -180 146
-197 185 -12 30 -38 47 -84 54 l-29 5 6 -54 c7 -70 42 -145 110 -236 59 -81
100 -119 157 -148 28 -14 37 -24 34 -38 -4 -11 8 -30 33 -53 44 -41 84 -86
132 -149 49 -66 98 -115 176 -178 149 -121 184 -140 333 -185 l82 -25 0 22 c0
17 -13 30 -52 52 -29 16 -57 31 -63 33 -13 5 -79 56 -132 102 -23 20 -67 71
-98 114 -53 73 -55 78 -41 100 26 40 169 57 241 29 11 -4 49 -33 85 -64 141
-122 279 -214 365 -240 22 -7 45 -16 50 -20 35 -25 205 -12 205 16 0 13 -66
47 -122 64 -101 31 -302 199 -356 297 -23 42 -23 42 -3 62 11 11 24 28 30 38
5 11 25 28 44 38 34 18 36 18 103 -5 153 -51 263 -63 330 -35 39 16 114 78
158 132 22 26 26 37 17 46 -9 9 -14 8 -21 -3 -5 -8 -13 -15 -17 -16 -4 0 -21
-6 -38 -13 -33 -14 -162 -18 -214 -6 -22 5 -35 15 -42 33 -15 38 4 50 104 62
102 12 193 44 269 93 58 37 112 93 123 127 9 28 -9 48 -28 32 -26 -22 -208
-82 -231 -76 -12 3 -31 6 -42 8 -31 4 -30 48 3 80 39 39 79 53 185 64 72 7
108 17 163 43 107 52 209 161 179 192 -3 3 -20 -3 -37 -13 -56 -32 -197 -68
-197 -51 0 5 21 25 46 46 41 34 167 85 210 85 8 0 18 10 23 23 17 42 97 97
142 97 15 0 10 -75 -6 -96 -8 -10 -15 -32 -15 -47 0 -41 -46 -171 -87 -250
-40 -75 -152 -185 -217 -212 -43 -18 -43 -41 0 -37 50 5 89 21 158 67 l67 44
-7 -32 c-15 -71 -101 -204 -175 -272 -25 -22 -68 -51 -96 -65 -81 -38 -70 -55
42 -64 27 -3 67 2 88 9 l38 13 -17 -26 c-10 -15 -24 -37 -31 -48 -18 -29 -78
-67 -130 -83 -40 -13 -103 -11 -176 5 -34 8 -36 -12 -6 -50 28 -35 65 -53 127
-62 77 -10 65 -42 -33 -85 -37 -17 -69 -22 -125 -22 -86 0 -136 13 -203 55
-26 17 -50 28 -54 25 -9 -9 35 -73 74 -108 47 -41 129 -79 171 -79 17 0 32 -4
32 -8 0 -13 -89 -75 -165 -116 -63 -35 -76 -38 -150 -39 -62 0 -96 6 -150 25
-82 30 -154 68 -208 111 -54 42 -65 25 -29 -50 26 -56 61 -95 122 -136 13 -9
19 -17 13 -17 -12 0 -53 -38 -53 -50 0 -10 124 -136 155 -157 63 -42 266 -99
410 -114 165 -17 303 36 564 217 29 20 95 158 87 180 -5 13 -16 5 -52 -35 -25
-27 -71 -65 -102 -83 -49 -28 -67 -33 -124 -33 -84 0 -108 17 -89 63 23 55 70
88 176 122 327 107 554 280 656 500 26 57 27 61 12 67 -7 3 -24 -19 -40 -51
-15 -31 -33 -56 -40 -56 -7 0 -20 -12 -29 -26 -24 -36 -97 -84 -177 -116 -82
-34 -106 -35 -142 -6 -35 27 -30 64 19 141 46 71 68 86 223 151 94 38 154 71
219 119 96 70 201 173 226 222 9 17 28 52 42 79 14 27 23 52 20 57 -12 20 -41
5 -132 -72 -115 -95 -208 -144 -317 -165 -73 -15 -84 -15 -118 -1 -31 14 -37
21 -37 47 0 82 69 165 186 221 78 38 93 42 197 48 140 10 242 1 379 -33 230
-57 521 -78 788 -57 526 41 853 137 1164 340 60 39 113 71 117 71 4 0 28 27
53 59 35 46 46 68 46 96 0 40 -22 46 -28 7 -9 -57 -182 -151 -372 -201 -189
-50 -295 -64 -505 -65 -205 -1 -307 14 -375 55 l-32 20 22 24 c47 50 196 98
405 130 202 31 444 125 623 241 114 74 266 227 311 314 19 36 46 83 61 105 15
22 32 55 38 74 13 36 14 121 3 160 -9 33 -31 39 -32 9 -1 -30 -30 -108 -49
-134 -45 -59 -253 -224 -337 -268 -81 -41 -232 -88 -315 -97 -90 -9 -118 -6
-118 15 0 28 104 167 180 241 152 147 310 317 369 395 95 126 136 250 156 466
7 77 -3 112 -50 162 -28 30 -41 15 -24 -31 23 -65 -35 -185 -124 -255 -49 -39
-173 -100 -266 -132 -95 -32 -158 -15 -182 49 -17 42 19 129 76 186 108 109
348 257 439 270 94 15 186 -40 231 -137 9 -21 24 -38 31 -38 22 0 17 69 -10
125 -30 64 -95 131 -154 158 -106 49 -353 16 -491 -66 l-33 -20 12 23 c7 13
50 62 95 109 149 154 330 224 440 169 31 -16 106 -90 116 -115 5 -13 15 -23
24 -23 20 0 21 -3 -22 81 -21 41 -58 94 -83 119 -50 50 -58 51 -220 39z m-300
-201 c-129 -117 -150 -142 -207 -240 -89 -151 -132 -286 -148 -473 -4 -38 -11
-97 -15 -130 -5 -33 -16 -123 -25 -200 -10 -88 -25 -165 -42 -210 -14 -38 -33
-96 -43 -127 -40 -126 -142 -265 -298 -407 -148 -135 -262 -210 -397 -262
-106 -41 -180 -55 -360 -69 -426 -32 -593 -58 -690 -108 -27 -13 -82 -47 -122
-73 -40 -27 -74 -49 -76 -49 -2 0 2 30 9 68 19 98 71 236 100 263 24 23 31 24
122 19 54 -3 176 -5 272 -4 164 1 182 3 295 33 289 77 484 179 581 301 18 23
46 53 63 68 44 41 164 229 201 318 62 149 90 272 115 504 9 80 20 184 25 232
6 51 19 109 33 140 52 117 216 268 371 343 88 42 246 104 266 104 8 0 -5 -18
-30 -41z"/>
<path d="M4600 7346 c-63 -13 -140 -35 -170 -49 -30 -15 -60 -27 -66 -27 -15
0 -178 -65 -229 -91 -21 -12 -73 -34 -115 -51 -111 -44 -297 -142 -365 -193
-74 -56 -110 -103 -132 -172 -15 -47 -15 -63 -5 -124 7 -38 21 -88 32 -109 32
-62 26 -114 -23 -216 -24 -49 -56 -100 -71 -114 -15 -14 -41 -39 -57 -56 -47
-49 -218 -130 -349 -165 -102 -27 -138 -31 -320 -38 -178 -7 -213 -11 -265
-31 -64 -24 -138 -90 -133 -118 5 -27 59 -22 96 9 17 16 56 35 85 44 65 18
180 35 204 29 10 -3 81 2 158 10 100 11 165 24 230 46 62 21 123 34 195 40
116 10 138 15 224 54 138 61 199 150 216 311 5 53 12 106 14 118 3 12 7 54 11
92 9 113 47 178 184 315 199 198 346 293 571 370 52 18 122 46 154 61 33 16
65 29 72 29 20 0 27 19 14 35 -15 19 -19 18 -160 -9z"/>
<path d="M6153 6453 c-20 -10 -33 -24 -33 -35 0 -10 33 -60 74 -111 40 -51 83
-113 96 -137 12 -25 31 -57 41 -71 33 -48 87 -233 99 -341 6 -57 22 -145 36
-197 13 -52 23 -96 21 -97 -2 -2 -19 17 -38 42 -39 53 -104 102 -147 110 -39
8 -123 -29 -150 -66 -44 -58 -46 -249 -5 -390 8 -30 28 -105 43 -165 49 -198
98 -272 331 -500 96 -93 198 -198 226 -232 71 -85 155 -238 199 -361 20 -57
43 -106 51 -109 23 -9 40 16 46 70 3 28 16 126 27 217 31 239 39 379 29 509
-10 132 -9 123 -113 676 -9 44 -23 122 -32 174 -41 234 -166 535 -313 755 -83
123 -146 182 -253 236 -69 34 -89 40 -142 39 -35 0 -75 -7 -93 -16z"/>
<path d="M1791 6089 c-84 -67 -107 -76 -131 -47 l-18 22 -26 -53 c-29 -56 -97
-161 -146 -225 -23 -30 -30 -49 -30 -83 0 -38 4 -46 33 -63 36 -22 97 -26 130
-9 12 7 51 33 87 59 130 95 204 121 388 136 58 5 82 10 82 20 0 26 -38 35
-128 28 -86 -6 -88 -6 -129 24 -55 41 -60 61 -32 134 20 54 21 62 7 72 -8 6
-13 17 -11 24 8 23 -13 12 -76 -39z"/>
<path d="M2790 5804 c-185 -17 -420 -56 -531 -89 -44 -12 -78 -12 -271 -1 -37
3 -70 1 -73 -4 -8 -13 34 -50 81 -70 22 -10 72 -20 110 -24 180 -15 281 -35
349 -71 110 -58 140 -117 104 -207 -25 -64 -72 -163 -96 -200 -17 -26 -17 -29
0 -45 14 -15 20 -15 35 -5 9 7 28 18 42 25 14 7 36 20 50 29 14 9 48 24 75 33
148 50 449 181 465 204 3 4 20 18 39 31 39 27 106 97 140 147 53 79 29 177
-53 214 -66 29 -315 46 -466 33z"/>
<path d="M1825 5703 c-22 -14 -54 -38 -72 -54 -123 -107 -376 -198 -397 -143
-12 31 -6 62 19 98 43 64 12 75 -63 24 -91 -64 -282 -275 -282 -312 0 -7 5
-27 11 -44 8 -25 18 -33 45 -38 47 -9 86 0 183 41 45 19 87 35 92 35 26 0 264
126 320 169 61 48 139 130 139 148 0 5 16 24 35 43 60 58 41 79 -30 33z"/>
<path d="M2150 5533 c-55 -9 -241 -55 -335 -82 -55 -16 -116 -32 -135 -35 -53
-9 -206 -124 -197 -149 9 -28 33 -29 71 -3 67 45 129 59 286 64 186 5 248 -6
320 -56 75 -54 103 -107 97 -188 -4 -56 -28 -124 -59 -166 -14 -19 -1 -53 19
-53 16 0 121 124 179 210 71 108 103 219 85 297 -16 72 -69 139 -124 155 -40
12 -153 15 -207 6z"/>
<path d="M1365 5273 c-32 -8 -284 -131 -345 -169 -77 -47 -135 -67 -149 -50
-14 17 27 97 75 147 19 19 31 38 28 42 -33 32 -155 -46 -302 -192 -120 -119
-154 -173 -160 -263 -6 -75 29 -140 84 -158 70 -23 102 -3 279 175 198 198
376 355 402 355 4 0 30 15 58 33 27 19 62 41 78 51 15 9 27 21 27 26 0 10 -39
12 -75 3z"/>
<path d="M1659 4879 c-72 -8 -146 -39 -313 -135 -66 -37 -150 -73 -247 -105
-128 -42 -161 -49 -263 -55 -77 -5 -116 -11 -116 -18 0 -19 71 -82 119 -107
70 -36 178 -38 264 -5 38 14 81 34 96 45 36 26 207 101 230 101 33 0 50 -31
42 -76 -12 -63 -42 -106 -89 -130 -54 -27 -60 -33 -42 -44 15 -9 70 -5 154 11
62 12 173 92 226 163 20 28 47 60 60 71 38 34 70 109 70 165 0 40 -5 56 -27
80 -34 38 -77 48 -164 39z"/>
<path d="M5777 4845 c-49 -18 -114 -69 -132 -105 -14 -28 -37 -178 -29 -192 7
-10 90 -65 132 -87 45 -23 157 -121 207 -181 21 -25 53 -56 72 -69 56 -40 61
-25 52 169 -5 131 -12 187 -33 265 -31 114 -60 159 -127 192 -51 25 -89 27
-142 8z"/>
<path d="M3765 4680 c-3 -5 9 -34 26 -65 29 -52 31 -60 21 -94 -16 -51 -76
-109 -126 -122 -23 -5 -46 -12 -51 -13 -16 -5 -12 -46 7 -81 23 -44 39 -142
39 -244 0 -179 -116 -445 -265 -609 -82 -90 -328 -294 -480 -399 -78 -53 -184
-126 -236 -163 -52 -37 -140 -98 -195 -135 -241 -164 -382 -279 -485 -396 -72
-81 -80 -102 -44 -107 14 -2 33 14 64 52 107 134 298 251 635 390 418 172 463
192 693 318 263 144 418 260 571 428 213 235 291 417 278 655 -3 59 -14 127
-26 165 -41 131 -194 352 -265 384 -28 13 -136 46 -149 46 -3 0 -8 -4 -12 -10z"/>
<path d="M6128 4654 c-4 -3 -3 -17 3 -31 5 -13 6 -41 3 -61 -3 -20 1 -68 9
-107 8 -38 23 -130 33 -203 16 -124 17 -134 1 -167 -9 -20 -23 -38 -31 -41 -8
-3 -39 11 -69 31 -61 40 -122 54 -157 35 -35 -19 -70 -107 -76 -196 -14 -174
39 -385 161 -644 74 -158 93 -216 134 -405 42 -196 71 -388 72 -481 0 -44 3
-97 7 -119 6 -33 11 -40 31 -40 20 0 29 14 65 105 24 58 52 124 64 147 12 24
29 73 38 110 8 38 31 115 49 173 53 166 66 253 72 480 5 177 2 225 -16 350
-42 282 -85 461 -164 685 -58 165 -64 179 -91 231 -73 138 -81 149 -107 152
-13 2 -28 0 -31 -4z"/>
<path d="M5169 4363 c-67 -35 -103 -85 -123 -175 -19 -81 -13 -193 15 -289 21
-71 32 -85 163 -209 67 -64 109 -130 136 -215 23 -73 59 -135 79 -135 27 0 46
27 80 112 46 114 71 250 71 385 0 102 -4 126 -31 207 -35 105 -63 156 -131
243 -82 103 -159 126 -259 76z"/>
<path d="M4337 3857 c-7 -83 -21 -127 -74 -233 -55 -113 -219 -344 -283 -399
-30 -26 -74 -64 -97 -85 -24 -20 -93 -64 -155 -98 -132 -71 -506 -248 -593
-281 -33 -13 -89 -36 -125 -51 -36 -16 -99 -41 -140 -55 -41 -15 -93 -37 -115
-50 -22 -12 -53 -25 -68 -29 -15 -4 -83 -42 -150 -85 -67 -43 -215 -135 -330
-205 -114 -70 -207 -131 -207 -135 0 -3 -17 -15 -37 -26 -37 -20 -172 -113
-343 -238 -191 -139 -319 -288 -437 -511 -23 -43 -30 -86 -13 -86 5 0 17 14
25 31 21 39 151 176 176 184 10 4 19 12 19 18 0 22 241 160 401 232 53 23 134
55 180 71 46 15 111 38 144 50 33 13 119 39 190 59 507 142 791 268 1180 523
224 147 437 368 620 642 86 128 142 241 222 447 80 207 76 191 63 258 -14 77
-29 125 -39 125 -5 0 -11 -33 -14 -73z"/>
<path d="M4547 3792 c-24 -26 -32 -77 -19 -120 6 -20 15 -57 21 -82 5 -25 30
-103 54 -175 105 -305 94 -482 -35 -575 -50 -37 -71 -37 -120 -3 -26 17 -42
23 -49 16 -5 -5 -17 -54 -25 -109 -18 -116 -56 -249 -92 -319 -49 -98 -155
-266 -173 -276 -11 -5 -19 -16 -19 -24 0 -15 -143 -197 -185 -235 -15 -14 -47
-51 -71 -83 -29 -40 -93 -97 -203 -181 -204 -157 -275 -204 -441 -288 -74 -38
-173 -95 -220 -125 -93 -62 -235 -201 -335 -329 -95 -120 -205 -347 -205 -421
0 -29 32 -31 58 -5 10 10 26 21 35 25 9 3 26 25 37 49 27 59 206 222 339 310
58 39 151 92 206 118 226 108 281 131 324 141 25 5 50 14 57 20 6 5 43 25 82
44 245 119 543 313 692 450 456 421 457 422 609 757 50 112 86 312 98 543 4
95 2 126 -21 224 -22 97 -37 136 -111 278 -47 91 -115 205 -150 255 -36 49
-65 94 -65 100 0 14 -27 38 -43 38 -8 0 -21 -8 -30 -18z"/>
<path d="M5648 3729 c-7 -4 -12 -48 -14 -111 -5 -153 -12 -197 -45 -264 -36
-73 -79 -126 -131 -165 l-39 -28 -59 40 c-72 50 -121 59 -168 29 -47 -29 -71
-91 -93 -239 -10 -69 -27 -171 -36 -226 -12 -74 -18 -170 -19 -365 -3 -309
-12 -402 -46 -487 -30 -75 -104 -186 -162 -242 -36 -35 -179 -134 -209 -144
-6 -2 -7 -9 -3 -15 13 -21 59 -12 121 23 33 18 87 48 120 66 89 47 166 112
315 266 139 143 261 301 368 480 111 185 218 457 262 663 13 66 14 291 1 373
-14 79 -71 318 -83 340 -9 17 -56 21 -80 6z"/>
<path d="M4171 2982 c-6 -21 -22 -53 -36 -72 -14 -19 -25 -39 -25 -45 0 -24
-129 -204 -219 -307 -85 -97 -148 -154 -271 -247 -25 -18 -61 -48 -80 -67 -48
-45 -323 -209 -510 -304 -272 -137 -529 -240 -750 -300 -306 -83 -681 -221
-860 -317 -47 -25 -123 -66 -170 -91 -160 -86 -268 -162 -420 -296 -131 -116
-278 -285 -265 -306 11 -18 33 -11 78 28 142 118 395 247 617 312 41 12 88 26
104 31 16 5 44 9 63 9 19 0 43 5 54 11 11 6 96 19 187 30 198 23 247 33 497
105 254 74 297 90 571 211 319 142 612 351 910 648 182 181 287 337 446 665
84 172 127 293 115 324 -11 27 -26 18 -36 -22z"/>
<path d="M5617 2074 c-16 -19 -44 -42 -63 -51 -32 -16 -35 -16 -57 5 -13 12
-28 22 -34 22 -6 0 -13 9 -16 20 -9 36 -24 21 -62 -65 -44 -99 -63 -120 -100
-111 -20 5 -25 3 -25 -13 0 -12 8 -21 22 -23 21 -3 21 -3 -5 -33 -20 -24 -28
-28 -38 -17 -22 21 -29 13 -29 -33 0 -25 -7 -62 -15 -81 -8 -20 -12 -40 -9
-45 9 -15 24 -10 31 9 4 9 33 58 66 107 54 83 85 118 88 98 1 -4 2 -12 3 -18
1 -5 6 -29 10 -52 10 -49 23 -53 64 -18 16 13 42 29 57 35 19 7 25 14 18 21
-6 6 -19 6 -37 -1 -36 -13 -46 -6 -46 36 0 24 4 34 16 34 9 0 14 6 11 13 -2 6
-11 11 -21 9 -13 -2 -16 6 -16 48 0 53 14 61 23 13 2 -16 11 -42 18 -60 11
-28 11 -34 -5 -52 -26 -29 -12 -42 25 -24 29 15 31 18 25 57 -5 36 -4 39 8 24
7 -10 16 -18 19 -18 4 0 18 23 32 50 14 28 28 50 31 50 3 0 3 -4 0 -8 -5 -9
-66 -227 -66 -237 0 -14 22 0 62 39 41 39 121 76 167 76 6 0 11 4 11 9 0 14
-56 24 -77 13 -10 -5 -31 -12 -47 -16 l-28 -7 6 58 c4 32 14 79 22 105 24 74
6 89 -39 32z"/>
</g>
</svg>
